<mxfile host="app.diagrams.net" modified="2024-05-21T14:52:11.362Z" agent="Mozilla/5.0 (Windows NT 10.0; Win64; x64) AppleWebKit/537.36 (KHTML, like Gecko) Chrome/124.0.0.0 Safari/537.36" etag="8Nwm5SO0QTC6T8TPvPnY" version="24.4.4" type="github">
  <diagram name="第 1 页" id="-wan3ZfH7ez20MEOnloe">
    <mxGraphModel dx="2555" dy="2091" grid="1" gridSize="10" guides="1" tooltips="1" connect="1" arrows="1" fold="1" page="1" pageScale="1" pageWidth="827" pageHeight="1169" math="0" shadow="0">
      <root>
        <mxCell id="0" />
        <mxCell id="1" parent="0" />
        <mxCell id="wunBxoblAqpyveULy-om-1" value="" style="shape=curlyBracket;whiteSpace=wrap;html=1;rounded=1;labelPosition=left;verticalLabelPosition=middle;align=right;verticalAlign=middle;fontSize=18;" parent="1" vertex="1">
          <mxGeometry x="-310" y="495" width="20" height="410" as="geometry" />
        </mxCell>
        <mxCell id="wunBxoblAqpyveULy-om-2" value="&lt;span style=&quot;color: rgb(51, 51, 51); font-family: &amp;quot;Noto Sans SC&amp;quot;; font-size: 18px; font-style: normal; font-variant-ligatures: normal; font-variant-caps: normal; font-weight: 400; letter-spacing: normal; orphans: 2; text-align: left; text-indent: 0px; text-transform: none; widows: 2; word-spacing: 0px; -webkit-text-stroke-width: 0px; white-space: normal; background-color: rgb(255, 255, 255); text-decoration-thickness: initial; text-decoration-style: initial; text-decoration-color: initial; float: none; display: inline !important;&quot;&gt;马主是关于无产和人解的科学&lt;/span&gt;" style="text;whiteSpace=wrap;html=1;fontSize=18;" parent="1" vertex="1">
          <mxGeometry x="200" y="185" width="220" height="40" as="geometry" />
        </mxCell>
        <mxCell id="wunBxoblAqpyveULy-om-3" value="&lt;span style=&quot;color: rgb(51, 51, 51); font-family: &amp;quot;Noto Sans SC&amp;quot;; font-size: 18px; font-style: normal; font-variant-ligatures: normal; font-variant-caps: normal; font-weight: 400; letter-spacing: normal; orphans: 2; text-align: left; text-indent: 0px; text-transform: none; widows: 2; word-spacing: 0px; -webkit-text-stroke-width: 0px; white-space: normal; background-color: rgb(255, 255, 255); text-decoration-thickness: initial; text-decoration-style: initial; text-decoration-color: initial; float: none; display: inline !important;&quot;&gt;一、物质世界及其发展规律&lt;/span&gt;" style="text;whiteSpace=wrap;html=1;fontSize=18;" parent="1" vertex="1">
          <mxGeometry x="200" y="630" width="220" height="40" as="geometry" />
        </mxCell>
        <mxCell id="wunBxoblAqpyveULy-om-4" value="&lt;span style=&quot;color: rgb(51, 51, 51); font-family: &amp;quot;Noto Sans SC&amp;quot;; font-size: 18px; font-style: normal; font-variant-ligatures: normal; font-variant-caps: normal; font-weight: 400; letter-spacing: normal; orphans: 2; text-align: left; text-indent: 0px; text-transform: none; widows: 2; word-spacing: 0px; -webkit-text-stroke-width: 0px; white-space: normal; background-color: rgb(255, 255, 255); text-decoration-thickness: initial; text-decoration-style: initial; text-decoration-color: initial; float: none; display: inline !important;&quot;&gt;二、认识的本质及其规律&lt;/span&gt;" style="text;whiteSpace=wrap;html=1;fontSize=18;" parent="1" vertex="1">
          <mxGeometry x="-280" y="685" width="180" height="40" as="geometry" />
        </mxCell>
        <mxCell id="wunBxoblAqpyveULy-om-5" value="&lt;span style=&quot;color: rgb(51, 51, 51); font-family: &amp;quot;Noto Sans SC&amp;quot;; font-size: 18px; font-style: normal; font-variant-ligatures: normal; font-variant-caps: normal; font-weight: 400; letter-spacing: normal; orphans: 2; text-align: left; text-indent: 0px; text-transform: none; widows: 2; word-spacing: 0px; -webkit-text-stroke-width: 0px; white-space: normal; background-color: rgb(255, 255, 255); text-decoration-thickness: initial; text-decoration-style: initial; text-decoration-color: initial; float: none; display: inline !important;&quot;&gt;三、人类社会及其发展规律&lt;/span&gt;" style="text;whiteSpace=wrap;html=1;fontSize=18;" parent="1" vertex="1">
          <mxGeometry x="-280" y="745" width="260" height="40" as="geometry" />
        </mxCell>
        <mxCell id="wunBxoblAqpyveULy-om-6" value="&lt;span style=&quot;color: rgb(51, 51, 51); font-family: &amp;quot;Noto Sans SC&amp;quot;; font-size: 18px; font-style: normal; font-variant-ligatures: normal; font-variant-caps: normal; font-weight: 400; letter-spacing: normal; orphans: 2; text-align: left; text-indent: 0px; text-transform: none; widows: 2; word-spacing: 0px; -webkit-text-stroke-width: 0px; white-space: normal; background-color: rgb(255, 255, 255); text-decoration-thickness: initial; text-decoration-style: initial; text-decoration-color: initial; float: none; display: inline !important;&quot;&gt;四、资本主义制度的形成及其本质&lt;/span&gt;" style="text;whiteSpace=wrap;html=1;fontSize=18;" parent="1" vertex="1">
          <mxGeometry x="-280" y="805" width="270" height="40" as="geometry" />
        </mxCell>
        <mxCell id="wunBxoblAqpyveULy-om-7" value="&lt;span style=&quot;color: rgb(51, 51, 51); font-family: &amp;quot;Noto Sans SC&amp;quot;; font-size: 18px; font-style: normal; font-variant-ligatures: normal; font-variant-caps: normal; font-weight: 400; letter-spacing: normal; orphans: 2; text-align: left; text-indent: 0px; text-transform: none; widows: 2; word-spacing: 0px; -webkit-text-stroke-width: 0px; white-space: normal; background-color: rgb(255, 255, 255); text-decoration-thickness: initial; text-decoration-style: initial; text-decoration-color: initial; float: none; display: inline !important;&quot;&gt;五、资本主义的发展及其趋势&lt;/span&gt;" style="text;whiteSpace=wrap;html=1;fontSize=18;" parent="1" vertex="1">
          <mxGeometry x="-280" y="865" width="210" height="40" as="geometry" />
        </mxCell>
        <mxCell id="wunBxoblAqpyveULy-om-8" value="&lt;span style=&quot;color: rgb(51, 51, 51); font-family: &amp;quot;Noto Sans SC&amp;quot;; font-size: 18px; font-style: normal; font-variant-ligatures: normal; font-variant-caps: normal; font-weight: 400; letter-spacing: normal; orphans: 2; text-align: left; text-indent: 0px; text-transform: none; widows: 2; word-spacing: 0px; -webkit-text-stroke-width: 0px; white-space: normal; background-color: rgb(255, 255, 255); text-decoration-thickness: initial; text-decoration-style: initial; text-decoration-color: initial; float: none; display: inline !important;&quot;&gt;六、社会主义的发展及其规律&lt;/span&gt;" style="text;whiteSpace=wrap;html=1;fontSize=18;" parent="1" vertex="1">
          <mxGeometry x="-280" y="925" width="210" height="40" as="geometry" />
        </mxCell>
        <mxCell id="wunBxoblAqpyveULy-om-9" value="&lt;span style=&quot;color: rgb(51, 51, 51); font-family: &amp;quot;Noto Sans SC&amp;quot;; font-size: 18px; font-style: normal; font-variant-ligatures: normal; font-variant-caps: normal; font-weight: 400; letter-spacing: normal; orphans: 2; text-align: left; text-indent: 0px; text-transform: none; widows: 2; word-spacing: 0px; -webkit-text-stroke-width: 0px; white-space: normal; background-color: rgb(255, 255, 255); text-decoration-thickness: initial; text-decoration-style: initial; text-decoration-color: initial; float: none; display: inline !important;&quot;&gt;七、共产主义社会是人类最崇高的社会理想&lt;/span&gt;" style="text;whiteSpace=wrap;html=1;fontSize=18;" parent="1" vertex="1">
          <mxGeometry x="-280" y="985" width="310" height="40" as="geometry" />
        </mxCell>
        <mxCell id="wunBxoblAqpyveULy-om-10" value="" style="shape=curlyBracket;whiteSpace=wrap;html=1;rounded=1;labelPosition=left;verticalLabelPosition=middle;align=right;verticalAlign=middle;fontSize=18;" parent="1" vertex="1">
          <mxGeometry x="430" y="-110" width="20" height="630" as="geometry" />
        </mxCell>
        <mxCell id="wunBxoblAqpyveULy-om-11" value="&lt;span style=&quot;color: rgb(51, 51, 51); font-family: &amp;quot;Noto Sans SC&amp;quot;; font-size: 18px; font-style: normal; font-variant-ligatures: normal; font-variant-caps: normal; font-weight: 400; letter-spacing: normal; orphans: 2; text-align: left; text-indent: 0px; text-transform: none; widows: 2; word-spacing: 0px; -webkit-text-stroke-width: 0px; white-space: normal; background-color: rgb(255, 255, 255); text-decoration-thickness: initial; text-decoration-style: initial; text-decoration-color: initial; float: none; display: inline !important;&quot;&gt;基本组成:&lt;/span&gt;&lt;span style=&quot;color: rgb(51, 51, 51); font-family: &amp;quot;Noto Sans SC&amp;quot;; font-size: 18px; background-color: rgb(255, 255, 255);&quot;&gt;马哲、马经、科学社会主义、&lt;/span&gt;&lt;div style=&quot;font-size: 18px;&quot;&gt;&lt;span style=&quot;color: rgb(51, 51, 51); font-family: &amp;quot;Noto Sans SC&amp;quot;; font-size: 18px; background-color: rgb(255, 255, 255);&quot;&gt;德国古典哲学、英国古典政治经济学和十九世纪英法两国的空想社会主义学说是马克思主义的直接理论来源&lt;/span&gt;&lt;span style=&quot;color: rgb(51, 51, 51); font-family: &amp;quot;Noto Sans SC&amp;quot;; font-size: 18px; background-color: rgb(255, 255, 255);&quot;&gt;&lt;br style=&quot;font-size: 18px;&quot;&gt;&lt;/span&gt;&lt;/div&gt;" style="text;whiteSpace=wrap;html=1;fontSize=18;" parent="1" vertex="1">
          <mxGeometry x="450" y="160" width="490" height="60" as="geometry" />
        </mxCell>
        <mxCell id="jRHQk6Dz35OUtVRRtzrg-1" value="&lt;span style=&quot;color: rgb(51, 51, 51); font-family: &amp;quot;Noto Sans SC&amp;quot;; font-size: 18px; font-style: normal; font-variant-ligatures: normal; font-variant-caps: normal; font-weight: 400; letter-spacing: normal; orphans: 2; text-align: left; text-indent: 0px; text-transform: none; widows: 2; word-spacing: 0px; -webkit-text-stroke-width: 0px; white-space: normal; background-color: rgb(255, 255, 255); text-decoration-thickness: initial; text-decoration-style: initial; text-decoration-color: initial; float: none; display: inline !important;&quot;&gt;理论特征:&lt;/span&gt;&lt;span style=&quot;color: rgb(51, 51, 51); font-family: &amp;quot;Noto Sans SC&amp;quot;; font-size: 18px; background-color: rgb(255, 255, 255);&quot;&gt;以&lt;b style=&quot;font-size: 18px;&quot;&gt;实践&lt;/b&gt;为基础的&lt;b style=&quot;font-size: 18px;&quot;&gt;科学性&lt;/b&gt;和&lt;/span&gt;&lt;b style=&quot;color: rgb(51, 51, 51); font-family: &amp;quot;Noto Sans SC&amp;quot;; font-size: 18px;&quot;&gt;革命性&lt;/b&gt;&lt;span style=&quot;background-color: rgb(255, 255, 255); color: rgb(51, 51, 51); font-family: &amp;quot;Noto Sans SC&amp;quot;; font-size: 18px;&quot;&gt;的统一&lt;/span&gt;" style="text;whiteSpace=wrap;html=1;strokeWidth=2;fontSize=18;" vertex="1" parent="1">
          <mxGeometry x="460" y="230" width="350" height="40" as="geometry" />
        </mxCell>
        <mxCell id="jRHQk6Dz35OUtVRRtzrg-2" value="&lt;span style=&quot;color: rgb(51, 51, 51); font-family: &amp;quot;Noto Sans SC&amp;quot;; font-size: 18px; font-style: normal; font-variant-ligatures: normal; font-variant-caps: normal; font-weight: 400; letter-spacing: normal; orphans: 2; text-align: left; text-indent: 0px; text-transform: none; widows: 2; word-spacing: 0px; -webkit-text-stroke-width: 0px; white-space: normal; background-color: rgb(255, 255, 255); text-decoration-thickness: initial; text-decoration-style: initial; text-decoration-color: initial; float: none; display: inline !important;&quot;&gt;学习马的方法:&lt;/span&gt;&lt;span style=&quot;color: rgb(51, 51, 51); font-family: &amp;quot;Noto Sans SC&amp;quot;; font-size: 18px; font-style: normal; font-variant-ligatures: normal; font-variant-caps: normal; letter-spacing: normal; orphans: 2; text-align: left; text-indent: 0px; text-transform: none; widows: 2; word-spacing: 0px; -webkit-text-stroke-width: 0px; white-space: normal; background-color: rgb(255, 255, 255); text-decoration-thickness: initial; text-decoration-style: initial; text-decoration-color: initial; float: none; display: inline !important;&quot;&gt;&lt;b style=&quot;font-size: 18px;&quot;&gt;理论联系实践&lt;/b&gt;&lt;/span&gt;" style="text;whiteSpace=wrap;html=1;fontSize=18;" vertex="1" parent="1">
          <mxGeometry x="460" y="270" width="230" height="40" as="geometry" />
        </mxCell>
        <mxCell id="jRHQk6Dz35OUtVRRtzrg-3" value="&lt;span style=&quot;color: rgb(51, 51, 51); font-family: &amp;quot;Noto Sans SC&amp;quot;; font-size: 18px; font-style: normal; font-variant-ligatures: normal; font-variant-caps: normal; font-weight: 400; letter-spacing: normal; orphans: 2; text-align: left; text-indent: 0px; text-transform: none; widows: 2; word-spacing: 0px; -webkit-text-stroke-width: 0px; white-space: normal; background-color: rgb(255, 255, 255); text-decoration-thickness: initial; text-decoration-style: initial; text-decoration-color: initial; float: none; display: inline !important;&quot;&gt;德国古典哲学：&lt;/span&gt;&lt;span style=&quot;color: rgb(51, 51, 51); font-family: &amp;quot;Noto Sans SC&amp;quot;; font-size: 18px; font-style: normal; font-variant-ligatures: normal; font-variant-caps: normal; letter-spacing: normal; orphans: 2; text-align: left; text-indent: 0px; text-transform: none; widows: 2; word-spacing: 0px; -webkit-text-stroke-width: 0px; white-space: normal; background-color: rgb(255, 255, 255); text-decoration-thickness: initial; text-decoration-style: initial; text-decoration-color: initial; float: none; display: inline !important;&quot;&gt;&lt;b style=&quot;font-size: 18px;&quot;&gt;黑格尔&lt;/b&gt;&lt;/span&gt;&lt;span style=&quot;color: rgb(51, 51, 51); font-family: &amp;quot;Noto Sans SC&amp;quot;; font-size: 18px; font-style: normal; font-variant-ligatures: normal; font-variant-caps: normal; font-weight: 400; letter-spacing: normal; orphans: 2; text-align: left; text-indent: 0px; text-transform: none; widows: 2; word-spacing: 0px; -webkit-text-stroke-width: 0px; white-space: normal; background-color: rgb(255, 255, 255); text-decoration-thickness: initial; text-decoration-style: initial; text-decoration-color: initial; float: none; display: inline !important;&quot;&gt;，&lt;/span&gt;&lt;span style=&quot;color: rgb(51, 51, 51); font-family: &amp;quot;Noto Sans SC&amp;quot;; font-size: 18px; background-color: rgb(255, 255, 255);&quot;&gt;&lt;b style=&quot;font-size: 18px;&quot;&gt;唯心主义&lt;/b&gt;，叙述辩证法的基本规律即&lt;b style=&quot;font-size: 18px;&quot;&gt;对立统一&lt;/b&gt;规律、&lt;b style=&quot;font-size: 18px;&quot;&gt;质量互变&lt;/b&gt;规律、&lt;b style=&quot;font-size: 18px;&quot;&gt;否定之否定规律&lt;/b&gt;的哲学家。&lt;/span&gt;" style="text;whiteSpace=wrap;html=1;fontSize=18;" vertex="1" parent="1">
          <mxGeometry x="545" y="-230" width="370" height="40" as="geometry" />
        </mxCell>
        <mxCell id="jRHQk6Dz35OUtVRRtzrg-4" value="&lt;span style=&quot;color: rgb(51, 51, 51); font-family: &amp;quot;Noto Sans SC&amp;quot;; font-size: 18px; font-style: normal; font-variant-ligatures: normal; font-variant-caps: normal; font-weight: 400; letter-spacing: normal; orphans: 2; text-align: left; text-indent: 0px; text-transform: none; widows: 2; word-spacing: 0px; -webkit-text-stroke-width: 0px; white-space: normal; background-color: rgb(255, 255, 255); text-decoration-thickness: initial; text-decoration-style: initial; text-decoration-color: initial; float: none; display: inline !important;&quot;&gt;英国古典经济学：&lt;/span&gt;&lt;span style=&quot;color: rgb(47, 184, 101); font-family: &amp;quot;Noto Sans SC&amp;quot;; font-size: 18px; background-color: rgb(255, 255, 255);&quot;&gt;斯密和李嘉图&lt;/span&gt;" style="text;whiteSpace=wrap;html=1;fontSize=18;" vertex="1" parent="1">
          <mxGeometry x="540" y="-150" width="270" height="40" as="geometry" />
        </mxCell>
        <mxCell id="jRHQk6Dz35OUtVRRtzrg-5" value="" style="shape=curlyBracket;whiteSpace=wrap;html=1;rounded=1;labelPosition=left;verticalLabelPosition=middle;align=right;verticalAlign=middle;fontSize=18;" vertex="1" parent="1">
          <mxGeometry x="520" y="-170" width="20" height="120" as="geometry" />
        </mxCell>
        <mxCell id="jRHQk6Dz35OUtVRRtzrg-6" value="各国哲学家" style="text;html=1;align=center;verticalAlign=middle;whiteSpace=wrap;rounded=0;fontSize=18;" vertex="1" parent="1">
          <mxGeometry x="450" y="-125" width="70" height="30" as="geometry" />
        </mxCell>
        <mxCell id="jRHQk6Dz35OUtVRRtzrg-8" value="&lt;span style=&quot;color: rgb(51, 51, 51); font-family: &amp;quot;Noto Sans SC&amp;quot;; font-size: 18px; font-style: normal; font-variant-ligatures: normal; font-variant-caps: normal; font-weight: 400; letter-spacing: normal; orphans: 2; text-align: left; text-indent: 0px; text-transform: none; widows: 2; word-spacing: 0px; -webkit-text-stroke-width: 0px; white-space: normal; background-color: rgb(255, 255, 255); text-decoration-thickness: initial; text-decoration-style: initial; text-decoration-color: initial; float: none; display: inline !important;&quot;&gt;社会主义从空想变成科学：&lt;/span&gt;&lt;span style=&quot;color: rgb(51, 51, 51); font-family: &amp;quot;Noto Sans SC&amp;quot;; font-size: 18px; background-color: rgb(255, 255, 255);&quot;&gt;以唯物史观和剩余价值学说为基础，&lt;/span&gt;&lt;span style=&quot;color: rgb(51, 51, 51); font-family: &amp;quot;Noto Sans SC&amp;quot;; font-size: 18px; background-color: rgb(255, 255, 255);&quot;&gt;深入研究资本主义制度的内在矛盾和发展趋势，&lt;/span&gt;&lt;span style=&quot;color: rgb(51, 51, 51); font-family: &amp;quot;Noto Sans SC&amp;quot;; font-size: 18px; background-color: rgb(255, 255, 255);&quot;&gt;总结工人阶级斗争的实践经验，批判地吸收了空想社会主义学说的积极成果，&lt;/span&gt;&lt;span style=&quot;color: rgb(51, 51, 51); font-family: &amp;quot;Noto Sans SC&amp;quot;; font-size: 18px; background-color: rgb(255, 255, 255);&quot;&gt;对未来社会主义和共产主义社会的基本特征做了科学的预测和设想，创立了科学社会主义理论，实现了社会主义理论的革命变革。唯物论与辩证法学说是成果，&lt;/span&gt;" style="text;whiteSpace=wrap;html=1;fontSize=18;" vertex="1" parent="1">
          <mxGeometry x="460" y="322.5" width="630" height="147.5" as="geometry" />
        </mxCell>
        <mxCell id="jRHQk6Dz35OUtVRRtzrg-9" value="&lt;div style=&quot;box-sizing: border-box; margin: 0px; padding: 0px; color: rgb(51, 51, 51); font-family: &amp;quot;Noto Sans SC&amp;quot;; font-size: 18px; font-style: normal; font-variant-ligatures: normal; font-variant-caps: normal; font-weight: 400; letter-spacing: normal; orphans: 2; text-align: left; text-indent: 0px; text-transform: none; widows: 2; word-spacing: 0px; -webkit-text-stroke-width: 0px; white-space: normal; background-color: rgb(255, 255, 255); text-decoration-thickness: initial; text-decoration-style: initial; text-decoration-color: initial;&quot;&gt;&lt;div style=&quot;box-sizing: border-box; margin: 0px; padding: 0px; font-size: 18px;&quot;&gt;核心：实事求是&amp;nbsp;&lt;/div&gt;&lt;div style=&quot;box-sizing: border-box; margin: 0px; padding: 0px; font-size: 18px;&quot;&gt;品质：与时俱进&amp;nbsp;&lt;/div&gt;&lt;div style=&quot;box-sizing: border-box; margin: 0px; padding: 0px; font-size: 18px;&quot;&gt;根本：为人民服务&amp;nbsp;&lt;/div&gt;&lt;div style=&quot;box-sizing: border-box; margin: 0px; padding: 0px; font-size: 18px;&quot;&gt;方法：理论联系实际&amp;nbsp;&lt;/div&gt;&lt;div style=&quot;box-sizing: border-box; margin: 0px; padding: 0px; font-size: 18px;&quot;&gt;要求：一切从实际出发&lt;/div&gt;&lt;/div&gt;&lt;div style=&quot;box-sizing: border-box; margin: 0px 0px auto; padding: 0px; display: flex; justify-content: flex-end; align-items: center; color: rgb(51, 51, 51); font-family: &amp;quot;Noto Sans SC&amp;quot;; font-size: 18px; font-style: normal; font-variant-ligatures: normal; font-variant-caps: normal; font-weight: 400; letter-spacing: normal; orphans: 2; text-align: left; text-indent: 0px; text-transform: none; widows: 2; word-spacing: 0px; -webkit-text-stroke-width: 0px; white-space: normal; background-color: rgb(255, 255, 255); text-decoration-thickness: initial; text-decoration-style: initial; text-decoration-color: initial;&quot; class=&quot;comment_menu&quot;&gt;&lt;button style=&quot;box-sizing: border-box; margin: 0px 20px 0px 0px; padding: 0px; outline: none; border: none; border-radius: 0px; font-family: inherit; font-size: 18px; line-height: inherit; overflow: visible; text-transform: none; appearance: button; background: transparent; display: flex; align-items: center; color: rgb(153, 153, 153); cursor: pointer;&quot; class=&quot;comment_like&quot;&gt;&lt;br class=&quot;Apple-interchange-newline&quot; style=&quot;font-size: 18px;&quot;&gt;&lt;br style=&quot;font-size: 18px;&quot;&gt;&lt;br style=&quot;font-size: 18px;&quot;&gt;&lt;/button&gt;&lt;/div&gt;" style="text;whiteSpace=wrap;html=1;fontSize=18;" vertex="1" parent="1">
          <mxGeometry x="450" y="-40" width="560" height="120" as="geometry" />
        </mxCell>
        <mxCell id="jRHQk6Dz35OUtVRRtzrg-10" value="&lt;span style=&quot;color: rgb(51, 51, 51); font-family: &amp;quot;Noto Sans SC&amp;quot;; font-size: 18px; font-style: normal; font-variant-ligatures: normal; font-variant-caps: normal; font-weight: 400; letter-spacing: normal; orphans: 2; text-align: left; text-indent: 0px; text-transform: none; widows: 2; word-spacing: 0px; -webkit-text-stroke-width: 0px; white-space: normal; background-color: rgb(255, 255, 255); text-decoration-thickness: initial; text-decoration-style: initial; text-decoration-color: initial; float: none; display: inline !important;&quot;&gt;哲学是指导（思想）&lt;/span&gt;&lt;div style=&quot;font-size: 18px;&quot;&gt;&lt;span style=&quot;color: rgb(51, 51, 51); font-family: &amp;quot;Noto Sans SC&amp;quot;; font-size: 18px; font-style: normal; font-variant-ligatures: normal; font-variant-caps: normal; font-weight: 400; letter-spacing: normal; orphans: 2; text-align: left; text-indent: 0px; text-transform: none; widows: 2; word-spacing: 0px; -webkit-text-stroke-width: 0px; white-space: normal; background-color: rgb(255, 255, 255); text-decoration-thickness: initial; text-decoration-style: initial; text-decoration-color: initial; float: none; display: inline !important;&quot;&gt;政治经济学是基础&lt;/span&gt;&lt;/div&gt;&lt;div style=&quot;font-size: 18px;&quot;&gt;&lt;span style=&quot;color: rgb(51, 51, 51); font-family: &amp;quot;Noto Sans SC&amp;quot;; font-size: 18px; font-style: normal; font-variant-ligatures: normal; font-variant-caps: normal; font-weight: 400; letter-spacing: normal; orphans: 2; text-align: left; text-indent: 0px; text-transform: none; widows: 2; word-spacing: 0px; -webkit-text-stroke-width: 0px; white-space: normal; background-color: rgb(255, 255, 255); text-decoration-thickness: initial; text-decoration-style: initial; text-decoration-color: initial; float: none; display: inline !important;&quot;&gt;科学社会主义（核心）&lt;/span&gt;&lt;/div&gt;" style="text;whiteSpace=wrap;html=1;fontSize=18;" vertex="1" parent="1">
          <mxGeometry x="450" y="80" width="560" height="70" as="geometry" />
        </mxCell>
        <mxCell id="jRHQk6Dz35OUtVRRtzrg-11" value="&lt;span style=&quot;color: rgb(51, 51, 51); font-family: &amp;quot;Noto Sans SC&amp;quot;; font-size: 18px; font-style: normal; font-variant-ligatures: normal; font-variant-caps: normal; font-weight: 400; letter-spacing: normal; orphans: 2; text-align: left; text-indent: 0px; text-transform: none; widows: 2; word-spacing: 0px; -webkit-text-stroke-width: 0px; white-space: normal; background-color: rgb(255, 255, 255); text-decoration-thickness: initial; text-decoration-style: initial; text-decoration-color: initial; float: none; display: inline !important;&quot;&gt;英法&lt;/span&gt;&lt;span style=&quot;color: rgb(51, 51, 51); font-family: &amp;quot;Noto Sans SC&amp;quot;; font-size: 18px; background-color: rgb(255, 255, 255);&quot;&gt;圣傅欧&lt;/span&gt;" style="text;whiteSpace=wrap;html=1;fontSize=18;" vertex="1" parent="1">
          <mxGeometry x="545" y="-110" width="125" height="40" as="geometry" />
        </mxCell>
        <mxCell id="jRHQk6Dz35OUtVRRtzrg-12" value="" style="shape=curlyBracket;whiteSpace=wrap;html=1;rounded=1;labelPosition=left;verticalLabelPosition=middle;align=right;verticalAlign=middle;fontSize=18;" vertex="1" parent="1">
          <mxGeometry x="430" y="550" width="20" height="490" as="geometry" />
        </mxCell>
        <mxCell id="jRHQk6Dz35OUtVRRtzrg-13" value="&lt;span style=&quot;color: rgb(51, 51, 51); font-family: &amp;quot;Noto Sans SC&amp;quot;; font-size: 18px; font-style: normal; font-variant-ligatures: normal; font-variant-caps: normal; font-weight: 400; letter-spacing: normal; orphans: 2; text-align: left; text-indent: 0px; text-transform: none; widows: 2; word-spacing: 0px; -webkit-text-stroke-width: 0px; white-space: normal; background-color: rgb(255, 255, 255); text-decoration-thickness: initial; text-decoration-style: initial; text-decoration-color: initial; float: none; display: inline !important;&quot;&gt;古代朴素唯物主义关键词金木水火土元气说，&lt;/span&gt;&lt;div style=&quot;font-size: 18px;&quot;&gt;&lt;span style=&quot;background-color: rgb(255, 255, 255); color: rgb(51, 51, 51); font-family: &amp;quot;Noto Sans SC&amp;quot;;&quot;&gt;辩证唯物主义黑格尔的辩证法和费尔巴哈的唯物主义&lt;/span&gt;&lt;br&gt;&lt;/div&gt;" style="text;whiteSpace=wrap;html=1;fontSize=18;" vertex="1" parent="1">
          <mxGeometry x="560" y="460" width="570" height="120" as="geometry" />
        </mxCell>
        <mxCell id="jRHQk6Dz35OUtVRRtzrg-14" value="&lt;span style=&quot;color: rgb(51, 51, 51); font-family: &amp;quot;Noto Sans SC&amp;quot;; font-size: 18px; font-style: normal; font-variant-ligatures: normal; font-variant-caps: normal; font-weight: 400; letter-spacing: normal; orphans: 2; text-align: left; text-indent: 0px; text-transform: none; widows: 2; word-spacing: 0px; -webkit-text-stroke-width: 0px; white-space: normal; background-color: rgb(255, 255, 255); text-decoration-thickness: initial; text-decoration-style: initial; text-decoration-color: initial; float: none; display: inline !important;&quot;&gt;唯物主义&lt;/span&gt;" style="text;whiteSpace=wrap;html=1;fontSize=18;" vertex="1" parent="1">
          <mxGeometry x="460" y="650" width="80" height="40" as="geometry" />
        </mxCell>
        <mxCell id="jRHQk6Dz35OUtVRRtzrg-15" value="" style="shape=curlyBracket;whiteSpace=wrap;html=1;rounded=1;labelPosition=left;verticalLabelPosition=middle;align=right;verticalAlign=middle;fontSize=18;" vertex="1" parent="1">
          <mxGeometry x="540" y="960" width="20" height="155" as="geometry" />
        </mxCell>
        <mxCell id="jRHQk6Dz35OUtVRRtzrg-16" value="&lt;span style=&quot;color: rgb(51, 51, 51); font-family: &amp;quot;Noto Sans SC&amp;quot;; font-size: 18px; font-style: normal; font-variant-ligatures: normal; font-variant-caps: normal; font-weight: 400; letter-spacing: normal; orphans: 2; text-align: left; text-indent: 0px; text-transform: none; widows: 2; word-spacing: 0px; -webkit-text-stroke-width: 0px; white-space: normal; background-color: rgb(255, 255, 255); text-decoration-thickness: initial; text-decoration-style: initial; text-decoration-color: initial; float: none; display: inline !important;&quot;&gt;唯物主义和唯心主义&amp;nbsp;&lt;/span&gt;&lt;span style=&quot;color: rgb(51, 51, 51); font-family: &amp;quot;Noto Sans SC&amp;quot;; font-size: 18px; background-color: rgb(255, 255, 255);&quot;&gt;世界的本源问题（世界“是什么”）&lt;/span&gt;" style="text;whiteSpace=wrap;html=1;fontSize=18;" vertex="1" parent="1">
          <mxGeometry x="590" y="920" width="420" height="40" as="geometry" />
        </mxCell>
        <mxCell id="jRHQk6Dz35OUtVRRtzrg-17" value="&lt;span style=&quot;color: rgb(51, 51, 51); font-family: &amp;quot;Noto Sans SC&amp;quot;; font-size: 18px; font-style: normal; font-variant-ligatures: normal; font-variant-caps: normal; font-weight: 400; letter-spacing: normal; orphans: 2; text-align: left; text-indent: 0px; text-transform: none; widows: 2; word-spacing: 0px; -webkit-text-stroke-width: 0px; white-space: normal; background-color: rgb(255, 255, 255); text-decoration-thickness: initial; text-decoration-style: initial; text-decoration-color: initial; float: none; display: inline !important;&quot;&gt;辩证法与形而上学&lt;/span&gt;&lt;span style=&quot;color: rgb(51, 51, 51); font-family: &amp;quot;Noto Sans SC&amp;quot;; font-size: 18px; background-color: rgb(255, 255, 255);&quot;&gt;世界的存在状态问题（世界“怎么样”）&lt;/span&gt;" style="text;whiteSpace=wrap;html=1;fontSize=18;" vertex="1" parent="1">
          <mxGeometry x="560" y="670" width="440" height="40" as="geometry" />
        </mxCell>
        <mxCell id="jRHQk6Dz35OUtVRRtzrg-18" value="&lt;span style=&quot;color: rgb(51, 51, 51); font-family: &amp;quot;Noto Sans SC&amp;quot;; font-size: 18px; font-style: normal; font-variant-ligatures: normal; font-variant-caps: normal; font-weight: 400; letter-spacing: normal; orphans: 2; text-align: left; text-indent: 0px; text-transform: none; widows: 2; word-spacing: 0px; -webkit-text-stroke-width: 0px; white-space: normal; background-color: rgb(255, 255, 255); text-decoration-thickness: initial; text-decoration-style: initial; text-decoration-color: initial; float: none; display: inline !important;&quot;&gt;唯心主义&lt;/span&gt;" style="text;whiteSpace=wrap;html=1;fontSize=18;" vertex="1" parent="1">
          <mxGeometry x="460" y="1010" width="80" height="40" as="geometry" />
        </mxCell>
        <mxCell id="jRHQk6Dz35OUtVRRtzrg-19" value="" style="shape=curlyBracket;whiteSpace=wrap;html=1;rounded=1;labelPosition=left;verticalLabelPosition=middle;align=right;verticalAlign=middle;fontSize=18;" vertex="1" parent="1">
          <mxGeometry x="540" y="515" width="20" height="305" as="geometry" />
        </mxCell>
        <mxCell id="jRHQk6Dz35OUtVRRtzrg-20" value="&lt;span style=&quot;color: rgb(51, 51, 51); font-family: &amp;quot;Noto Sans SC&amp;quot;; font-size: 18px; font-style: normal; font-variant-ligatures: normal; font-variant-caps: normal; font-weight: 400; letter-spacing: normal; orphans: 2; text-align: left; text-indent: 0px; text-transform: none; widows: 2; word-spacing: 0px; -webkit-text-stroke-width: 0px; white-space: normal; background-color: rgb(255, 255, 255); text-decoration-thickness: initial; text-decoration-style: initial; text-decoration-color: initial; float: none; display: inline !important;&quot;&gt;“实现意识对物质反作用”就是指精神变物质的途径，是指改造客观世界的途径，是指人的社会实践&lt;/span&gt;" style="text;whiteSpace=wrap;html=1;fontSize=18;" vertex="1" parent="1">
          <mxGeometry x="560" y="590" width="560" height="60" as="geometry" />
        </mxCell>
        <mxCell id="jRHQk6Dz35OUtVRRtzrg-22" value="物质和意识的关系" style="text;html=1;align=center;verticalAlign=middle;whiteSpace=wrap;rounded=0;fontSize=18;" vertex="1" parent="1">
          <mxGeometry x="450" y="1260" width="130" height="30" as="geometry" />
        </mxCell>
        <mxCell id="jRHQk6Dz35OUtVRRtzrg-23" value="&lt;span style=&quot;color: rgb(51, 51, 51); font-family: &amp;quot;Noto Sans SC&amp;quot;; font-size: 18px; font-style: normal; font-variant-ligatures: normal; font-variant-caps: normal; font-weight: 400; letter-spacing: normal; orphans: 2; text-align: left; text-indent: 0px; text-transform: none; widows: 2; word-spacing: 0px; -webkit-text-stroke-width: 0px; white-space: normal; background-color: rgb(255, 255, 255); text-decoration-thickness: initial; text-decoration-style: initial; text-decoration-color: initial; float: none; display: inline !important;&quot;&gt;“实&lt;/span&gt;&lt;span style=&quot;color: rgb(51, 51, 51); font-family: &amp;quot;Noto Sans SC&amp;quot;; font-size: 18px; font-style: normal; font-variant-ligatures: normal; font-variant-caps: normal; letter-spacing: normal; orphans: 2; text-align: left; text-indent: 0px; text-transform: none; widows: 2; word-spacing: 0px; -webkit-text-stroke-width: 0px; white-space: normal; background-color: rgb(255, 255, 255); text-decoration-thickness: initial; text-decoration-style: initial; text-decoration-color: initial; float: none; display: inline !important;&quot;&gt;&lt;b style=&quot;font-size: 18px;&quot;&gt;现意识对物质反作用&lt;/b&gt;&lt;/span&gt;&lt;span style=&quot;color: rgb(51, 51, 51); font-family: &amp;quot;Noto Sans SC&amp;quot;; font-size: 18px; font-style: normal; font-variant-ligatures: normal; font-variant-caps: normal; font-weight: 400; letter-spacing: normal; orphans: 2; text-align: left; text-indent: 0px; text-transform: none; widows: 2; word-spacing: 0px; -webkit-text-stroke-width: 0px; white-space: normal; background-color: rgb(255, 255, 255); text-decoration-thickness: initial; text-decoration-style: initial; text-decoration-color: initial; float: none; display: inline !important;&quot;&gt;”就是指精神变物质的途径，是指改造客观世界的途&lt;/span&gt;&lt;div style=&quot;font-size: 18px;&quot;&gt;&lt;span style=&quot;color: rgb(51, 51, 51); font-family: &amp;quot;Noto Sans SC&amp;quot;; font-size: 18px; font-style: normal; font-variant-ligatures: normal; font-variant-caps: normal; font-weight: 400; letter-spacing: normal; orphans: 2; text-align: left; text-indent: 0px; text-transform: none; widows: 2; word-spacing: 0px; -webkit-text-stroke-width: 0px; white-space: normal; background-color: rgb(255, 255, 255); text-decoration-thickness: initial; text-decoration-style: initial; text-decoration-color: initial; float: none; display: inline !important;&quot;&gt;径，是指人的&lt;/span&gt;&lt;span style=&quot;color: rgb(51, 51, 51); font-family: &amp;quot;Noto Sans SC&amp;quot;; font-size: 18px; font-style: normal; font-variant-ligatures: normal; font-variant-caps: normal; letter-spacing: normal; orphans: 2; text-align: left; text-indent: 0px; text-transform: none; widows: 2; word-spacing: 0px; -webkit-text-stroke-width: 0px; white-space: normal; background-color: rgb(255, 255, 255); text-decoration-thickness: initial; text-decoration-style: initial; text-decoration-color: initial; float: none; display: inline !important;&quot;&gt;&lt;b style=&quot;font-size: 18px;&quot;&gt;社会实践&lt;/b&gt;&lt;/span&gt;&lt;/div&gt;" style="text;whiteSpace=wrap;html=1;fontSize=18;" vertex="1" parent="1">
          <mxGeometry x="600" y="1145" width="560" height="85" as="geometry" />
        </mxCell>
        <mxCell id="jRHQk6Dz35OUtVRRtzrg-26" value="&lt;div style=&quot;forced-color-adjust: none; color: rgb(0, 0, 0); font-family: Helvetica; font-size: 18px; font-style: normal; font-variant-ligatures: normal; font-variant-caps: normal; font-weight: 400; letter-spacing: normal; orphans: 2; text-align: left; text-indent: 0px; text-transform: none; widows: 2; word-spacing: 0px; -webkit-text-stroke-width: 0px; white-space: normal; background-color: rgb(251, 251, 251); text-decoration-thickness: initial; text-decoration-style: initial; text-decoration-color: initial;&quot;&gt;&lt;span style=&quot;forced-color-adjust: none; background-color: rgb(255, 255, 255); color: rgb(51, 51, 51); font-family: &amp;quot;Noto Sans SC&amp;quot;;&quot;&gt;近代形而上学唯物主义也叫机械唯物主义主张世界是静止孤立没有联系&lt;/span&gt;&lt;/div&gt;" style="text;whiteSpace=wrap;html=1;" vertex="1" parent="1">
          <mxGeometry x="570" y="800" width="560" height="40" as="geometry" />
        </mxCell>
        <mxCell id="jRHQk6Dz35OUtVRRtzrg-34" value="" style="group" vertex="1" connectable="0" parent="1">
          <mxGeometry x="1340" y="530" width="640" height="285" as="geometry" />
        </mxCell>
        <mxCell id="jRHQk6Dz35OUtVRRtzrg-27" value="&lt;span style=&quot;color: rgb(51, 51, 51); font-family: &amp;quot;Noto Sans SC&amp;quot;; font-size: 18px; font-style: normal; font-variant-ligatures: normal; font-variant-caps: normal; font-weight: 400; letter-spacing: normal; orphans: 2; text-align: left; text-indent: 0px; text-transform: none; widows: 2; word-spacing: 0px; -webkit-text-stroke-width: 0px; white-space: normal; background-color: rgb(255, 255, 255); text-decoration-thickness: initial; text-decoration-style: initial; text-decoration-color: initial; float: none; display: inline !important;&quot;&gt;局限性&lt;/span&gt;" style="text;whiteSpace=wrap;html=1;fontSize=18;" vertex="1" parent="jRHQk6Dz35OUtVRRtzrg-34">
          <mxGeometry y="125" width="80" height="40" as="geometry" />
        </mxCell>
        <mxCell id="jRHQk6Dz35OUtVRRtzrg-33" value="" style="group" vertex="1" connectable="0" parent="jRHQk6Dz35OUtVRRtzrg-34">
          <mxGeometry x="80" width="560" height="285" as="geometry" />
        </mxCell>
        <mxCell id="jRHQk6Dz35OUtVRRtzrg-25" value="&lt;span style=&quot;color: rgb(51, 51, 51); font-family: &amp;quot;Noto Sans SC&amp;quot;; font-size: 16px; font-style: normal; font-variant-ligatures: normal; font-variant-caps: normal; font-weight: 400; letter-spacing: normal; orphans: 2; text-align: left; text-indent: 0px; text-transform: none; widows: 2; word-spacing: 0px; -webkit-text-stroke-width: 0px; white-space: normal; background-color: rgb(255, 255, 255); text-decoration-thickness: initial; text-decoration-style: initial; text-decoration-color: initial; display: inline !important; float: none;&quot;&gt;机械性，它将一切运动都归结为机械运动，&lt;/span&gt;&lt;span style=&quot;color: rgb(51, 51, 51); font-family: &amp;quot;Noto Sans SC&amp;quot;; font-size: 16px; background-color: rgb(255, 255, 255);&quot;&gt;企图用力学原理解释一切现象&lt;/span&gt;" style="text;whiteSpace=wrap;html=1;" vertex="1" parent="jRHQk6Dz35OUtVRRtzrg-33">
          <mxGeometry x="30" width="350" height="55" as="geometry" />
        </mxCell>
        <mxCell id="jRHQk6Dz35OUtVRRtzrg-29" value="" style="shape=curlyBracket;whiteSpace=wrap;html=1;rounded=1;labelPosition=left;verticalLabelPosition=middle;align=right;verticalAlign=middle;fontSize=18;" vertex="1" parent="jRHQk6Dz35OUtVRRtzrg-33">
          <mxGeometry y="15" width="20" height="250" as="geometry" />
        </mxCell>
        <mxCell id="jRHQk6Dz35OUtVRRtzrg-30" value="&lt;span style=&quot;color: rgb(51, 51, 51); font-family: &amp;quot;Noto Sans SC&amp;quot;; font-size: 16px; font-style: normal; font-variant-ligatures: normal; font-variant-caps: normal; font-weight: 400; letter-spacing: normal; orphans: 2; text-align: left; text-indent: 0px; text-transform: none; widows: 2; word-spacing: 0px; -webkit-text-stroke-width: 0px; white-space: normal; background-color: rgb(255, 255, 255); text-decoration-thickness: initial; text-decoration-style: initial; text-decoration-color: initial; display: inline !important; float: none;&quot;&gt;形而上学性，它将一切事物都看作彼此孤立的、在本质上不变化发展的&lt;/span&gt;" style="text;whiteSpace=wrap;html=1;" vertex="1" parent="jRHQk6Dz35OUtVRRtzrg-33">
          <mxGeometry x="30" y="95" width="530" height="40" as="geometry" />
        </mxCell>
        <mxCell id="jRHQk6Dz35OUtVRRtzrg-31" value="&lt;span style=&quot;color: rgb(51, 51, 51); font-family: &amp;quot;Noto Sans SC&amp;quot;; font-size: 16px; font-style: normal; font-variant-ligatures: normal; font-variant-caps: normal; font-weight: 400; letter-spacing: normal; orphans: 2; text-align: left; text-indent: 0px; text-transform: none; widows: 2; word-spacing: 0px; -webkit-text-stroke-width: 0px; white-space: normal; background-color: rgb(255, 255, 255); text-decoration-thickness: initial; text-decoration-style: initial; text-decoration-color: initial; display: inline !important; float: none;&quot;&gt;直观性，它对待世界、认识都缺乏实践的观点；&lt;/span&gt;" style="text;whiteSpace=wrap;html=1;" vertex="1" parent="jRHQk6Dz35OUtVRRtzrg-33">
          <mxGeometry x="30" y="165" width="370" height="40" as="geometry" />
        </mxCell>
        <mxCell id="jRHQk6Dz35OUtVRRtzrg-32" value="&lt;span style=&quot;color: rgb(51, 51, 51); font-family: &amp;quot;Noto Sans SC&amp;quot;; font-size: 16px; font-style: normal; font-variant-ligatures: normal; font-variant-caps: normal; font-weight: 400; letter-spacing: normal; orphans: 2; text-align: left; text-indent: 0px; text-transform: none; widows: 2; word-spacing: 0px; -webkit-text-stroke-width: 0px; white-space: normal; background-color: rgb(255, 255, 255); text-decoration-thickness: initial; text-decoration-style: initial; text-decoration-color: initial; display: inline !important; float: none;&quot;&gt;它仅在自然观上坚持唯物主义，在历史观上则陷入唯心主义。&lt;/span&gt;" style="text;whiteSpace=wrap;html=1;" vertex="1" parent="jRHQk6Dz35OUtVRRtzrg-33">
          <mxGeometry x="30" y="245" width="470" height="40" as="geometry" />
        </mxCell>
        <mxCell id="jRHQk6Dz35OUtVRRtzrg-35" value="&lt;span style=&quot;color: rgb(51, 51, 51); font-family: &amp;quot;Noto Sans SC&amp;quot;; font-size: 16px; font-style: normal; font-variant-ligatures: normal; font-variant-caps: normal; font-weight: 400; letter-spacing: normal; orphans: 2; text-align: left; text-indent: 0px; text-transform: none; widows: 2; word-spacing: 0px; -webkit-text-stroke-width: 0px; white-space: normal; background-color: rgb(255, 255, 255); text-decoration-thickness: initial; text-decoration-style: initial; text-decoration-color: initial; display: inline !important; float: none;&quot;&gt;意识的本质是&lt;/span&gt;&lt;span style=&quot;color: rgb(47, 184, 101); font-family: &amp;quot;Noto Sans SC&amp;quot;; font-size: 16px; background-color: rgb(255, 255, 255);&quot;&gt;人脑对客观世界的反映&lt;/span&gt;" style="text;whiteSpace=wrap;html=1;" vertex="1" parent="1">
          <mxGeometry x="600" y="1280" width="270" height="40" as="geometry" />
        </mxCell>
        <mxCell id="jRHQk6Dz35OUtVRRtzrg-36" value="&lt;span style=&quot;color: rgb(51, 51, 51); font-family: &amp;quot;Noto Sans SC&amp;quot;; font-size: 16px; font-style: normal; font-variant-ligatures: normal; font-variant-caps: normal; font-weight: 400; letter-spacing: normal; orphans: 2; text-align: left; text-indent: 0px; text-transform: none; widows: 2; word-spacing: 0px; -webkit-text-stroke-width: 0px; white-space: normal; background-color: rgb(255, 255, 255); text-decoration-thickness: initial; text-decoration-style: initial; text-decoration-color: initial; display: inline !important; float: none;&quot;&gt;意识能动性最突出的表现是&lt;/span&gt;&lt;span style=&quot;color: rgb(47, 184, 101); font-family: &amp;quot;Noto Sans SC&amp;quot;; font-size: 16px; background-color: rgb(255, 255, 255);&quot;&gt;意识能通过指导实践改造客观世界&lt;/span&gt;" style="text;whiteSpace=wrap;html=1;" vertex="1" parent="1">
          <mxGeometry x="600" y="1330" width="460" height="40" as="geometry" />
        </mxCell>
        <mxCell id="jRHQk6Dz35OUtVRRtzrg-37" value="&lt;span style=&quot;color: rgb(51, 51, 51); font-family: &amp;quot;Noto Sans SC&amp;quot;; font-size: 16px; font-style: normal; font-variant-ligatures: normal; font-variant-caps: normal; font-weight: 400; letter-spacing: normal; orphans: 2; text-align: left; text-indent: 0px; text-transform: none; widows: 2; word-spacing: 0px; -webkit-text-stroke-width: 0px; white-space: normal; background-color: rgb(255, 255, 255); text-decoration-thickness: initial; text-decoration-style: initial; text-decoration-color: initial; display: inline !important; float: none;&quot;&gt;主观唯心：经验感觉心 客观唯心：神上帝绝对精神&lt;/span&gt;" style="text;whiteSpace=wrap;html=1;" vertex="1" parent="1">
          <mxGeometry x="590" y="1010" width="390" height="40" as="geometry" />
        </mxCell>
        <mxCell id="jRHQk6Dz35OUtVRRtzrg-38" value="&lt;div style=&quot;box-sizing: border-box; margin: 0px; padding: 0px; color: rgb(51, 51, 51); font-family: &amp;quot;Noto Sans SC&amp;quot;; font-size: 16px; font-style: normal; font-variant-ligatures: normal; font-variant-caps: normal; font-weight: 400; letter-spacing: normal; orphans: 2; text-align: left; text-indent: 0px; text-transform: none; widows: 2; word-spacing: 0px; -webkit-text-stroke-width: 0px; white-space: normal; background-color: rgb(255, 255, 255); text-decoration-thickness: initial; text-decoration-style: initial; text-decoration-color: initial;&quot;&gt;&lt;div style=&quot;box-sizing: border-box; margin: 0px; padding: 0px;&quot;&gt;空间是物质运动的广延性和伸张性 时间是物质运动的持续性和顺序性&lt;/div&gt;&lt;/div&gt;&lt;div class=&quot;comment_menu&quot; style=&quot;box-sizing: border-box; margin: 0px 0px auto; padding: 0px; display: flex; justify-content: flex-end; align-items: center; color: rgb(51, 51, 51); font-family: &amp;quot;Noto Sans SC&amp;quot;; font-size: 16px; font-style: normal; font-variant-ligatures: normal; font-variant-caps: normal; font-weight: 400; letter-spacing: normal; orphans: 2; text-align: left; text-indent: 0px; text-transform: none; widows: 2; word-spacing: 0px; -webkit-text-stroke-width: 0px; white-space: normal; background-color: rgb(255, 255, 255); text-decoration-thickness: initial; text-decoration-style: initial; text-decoration-color: initial;&quot;&gt;&lt;button class=&quot;comment_like&quot; style=&quot;box-sizing: border-box; margin: 0px 20px 0px 0px; padding: 0px; outline: none; border: none; border-radius: 0px; font-family: inherit; font-size: inherit; line-height: inherit; overflow: visible; text-transform: none; appearance: button; background: transparent; display: flex; align-items: center; color: rgb(153, 153, 153); cursor: pointer;&quot;&gt;&lt;br class=&quot;Apple-interchange-newline&quot;&gt;&#xa;&#xa;&lt;/button&gt;&lt;/div&gt;" style="text;whiteSpace=wrap;html=1;" vertex="1" parent="1">
          <mxGeometry x="600" y="1420" width="520" height="40" as="geometry" />
        </mxCell>
        <mxCell id="jRHQk6Dz35OUtVRRtzrg-40" value="&lt;span style=&quot;color: rgb(51, 51, 51); font-family: &amp;quot;Helvetica Neue&amp;quot;, Helvetica, Arial, &amp;quot;PingFang SC&amp;quot;, &amp;quot;Hiragino Sans GB&amp;quot;, &amp;quot;Microsoft YaHei&amp;quot;, &amp;quot;WenQuanYi Micro Hei&amp;quot;, sans-serif; font-size: 14px; font-style: normal; font-variant-ligatures: normal; font-variant-caps: normal; font-weight: 400; letter-spacing: normal; orphans: 2; text-align: start; text-indent: 28px; text-transform: none; widows: 2; word-spacing: 0px; -webkit-text-stroke-width: 0px; white-space: normal; background-color: rgb(255, 255, 255); text-decoration-thickness: initial; text-decoration-style: initial; text-decoration-color: initial; display: inline !important; float: none;&quot;&gt;发展观&lt;/span&gt;" style="text;whiteSpace=wrap;html=1;" vertex="1" parent="1">
          <mxGeometry x="1340" y="865" width="80" height="40" as="geometry" />
        </mxCell>
        <mxCell id="jRHQk6Dz35OUtVRRtzrg-41" value="&lt;span style=&quot;color: rgb(51, 51, 51); font-family: &amp;quot;Helvetica Neue&amp;quot;, Helvetica, Arial, &amp;quot;PingFang SC&amp;quot;, &amp;quot;Hiragino Sans GB&amp;quot;, &amp;quot;Microsoft YaHei&amp;quot;, &amp;quot;WenQuanYi Micro Hei&amp;quot;, sans-serif; font-size: 14px; font-style: normal; font-variant-ligatures: normal; font-variant-caps: normal; font-weight: 400; letter-spacing: normal; orphans: 2; text-align: start; text-indent: 28px; text-transform: none; widows: 2; word-spacing: 0px; -webkit-text-stroke-width: 0px; white-space: normal; background-color: rgb(255, 255, 255); text-decoration-thickness: initial; text-decoration-style: initial; text-decoration-color: initial; display: inline !important; float: none;&quot;&gt;认为事物发展只有量的变化，没有质的飞跃，像走马灯一样，不断循环往复，只有数量的重复，没有性质的变化。&lt;/span&gt;" style="text;whiteSpace=wrap;html=1;" vertex="1" parent="1">
          <mxGeometry x="1420" y="855" width="560" height="60" as="geometry" />
        </mxCell>
        <mxCell id="jRHQk6Dz35OUtVRRtzrg-42" value="&lt;span style=&quot;color: rgb(51, 51, 51); font-family: &amp;quot;Noto Sans SC&amp;quot;; font-size: 16px; background-color: rgb(255, 255, 255);&quot;&gt;意识是自然界长期发展的产物&lt;/span&gt;" style="text;whiteSpace=wrap;html=1;" vertex="1" parent="1">
          <mxGeometry x="600" y="1510" width="250" height="40" as="geometry" />
        </mxCell>
      </root>
    </mxGraphModel>
  </diagram>
</mxfile>
